<?xml version="1.0" encoding="UTF-8" standalone="no"?>
<svg
   xmlns:dc="http://purl.org/dc/elements/1.1/"
   xmlns:cc="http://creativecommons.org/ns#"
   xmlns:rdf="http://www.w3.org/1999/02/22-rdf-syntax-ns#"
   xmlns:svg="http://www.w3.org/2000/svg"
   xmlns="http://www.w3.org/2000/svg"
   xmlns:sodipodi="http://sodipodi.sourceforge.net/DTD/sodipodi-0.dtd"
   xmlns:inkscape="http://www.inkscape.org/namespaces/inkscape"
   version="1.1"
   x="0px"
   y="0px"
   viewBox="0 0 60 60"
   xml:space="preserve"
   id="svg10"
   sodipodi:docname="charm.svg"
   width="60"
   height="60"
   inkscape:version="0.92.5 (2060ec1f9f, 2020-04-08)"><metadata
     id="metadata16"><rdf:RDF><cc:Work
         rdf:about=""><dc:format>image/svg+xml</dc:format><dc:type
           rdf:resource="http://purl.org/dc/dcmitype/StillImage" /><dc:title></dc:title></cc:Work></rdf:RDF></metadata><defs
     id="defs14" /><sodipodi:namedview
     pagecolor="#ffffff"
     bordercolor="#666666"
     borderopacity="1"
     objecttolerance="10"
     gridtolerance="10"
     guidetolerance="10"
     inkscape:pageopacity="0"
     inkscape:pageshadow="2"
     inkscape:window-width="1300"
     inkscape:window-height="848"
     id="namedview12"
     showgrid="false"
     inkscape:zoom="3.1466667"
     inkscape:cx="22.372881"
     inkscape:cy="-5.235281"
     inkscape:window-x="119"
     inkscape:window-y="44"
     inkscape:window-maximized="0"
     inkscape:current-layer="svg10" /><g
     id="g3724"
     transform="translate(1.9271202e-5,14.999986)"
     style="fill:#ffffff"><path
       inkscape:connector-curvature="0"
       id="path2"
       d="m 52.67102,14.901123 c -0.829956,-0.190002 -1.70996,0 -2.409973,0.51001 -3.320007,2.450012 -6.760009,3.909973 -8.780029,4.640014 0,0.03998 0.01001,0.08997 0.01001,0.129944 0,1.790039 -1.149964,3.360047 -2.869995,3.900025 -1.919983,0.609985 -4.589966,1.200012 -7.76001,1.200012 -1.529968,0 -3.169983,-0.140015 -4.899963,-0.479981 -0.54004,-0.100036 -0.900025,-0.630005 -0.79004,-1.170044 0.100037,-0.539978 0.630005,-0.899963 1.170044,-0.789978 4.909973,0.950013 9.059998,0.169983 11.679993,-0.660034 0.179993,-0.06 0.369995,-0.119995 0.549988,-0.190002 1.059997,-0.399964 0.73999,-2.069946 -0.390015,-2.009949 h -0.01001 c -5.609985,0.299988 -7.98999,-0.75 -11.009948,-2.080017 -1.920044,-0.840027 -4.100037,-1.799988 -7.420044,-2.609985 -3.880005,-0.940003 -6.75,1.320007 -9.529968,3.510009 -1.4600224,1.149964 -2.9700321,2.339966 -4.5800175,2.989991 -0.2600098,0.109985 -0.460022,0.309997 -0.5599976,0.559997 -0.099976,0.25 -0.090027,0.539978 0.020019,0.779969 l 4.1799927,9.179992 c 0.1199951,0.27002 0.3499756,0.470032 0.6400146,0.550049 0.089965,0.01996 0.1799918,0.02997 0.2699578,0.02997 0.200012,0 0.390015,-0.04999 0.559998,-0.169983 l 2.920044,-1.980041 c 1.690002,-1.139954 3.829956,-1.359985 5.71997,-0.579956 l 0.169983,0.07001 c 3.490052,1.440003 8.78003,3.619995 17.119995,1.549988 6.02002,-1.479981 14.170044,-8.73999 17.400025,-11.790039 0.98999,-0.929993 1.220031,-2.399964 0.530029,-3.649964 -0.410034,-0.73999 -1.110046,-1.260009 -1.930054,-1.440002 z"
       style="fill:#ffffff" /><path
       inkscape:connector-curvature="0"
       id="path4"
       d="m 34.771057,15.841125 c 0.140015,0.08002 0.309998,0.119996 0.479981,0.119996 0.160034,0 0.330017,-0.03998 0.47998,-0.119996 0.290039,-0.160034 7.240051,-4.030029 9.430054,-9.530029 0.940002,-2.349975 0.799988,-4.719971 -0.380005,-6.5 -0.559998,-0.839966 -1.320007,-1.509948 -2.230042,-1.959961 -0.899963,-0.460022 -1.95996,-0.720031 -3.130004,-0.73999 -1.559998,-0.03003 -2.989991,0.459961 -4.169983,1.389954 -1.190003,-0.929993 -2.669983,-1.429993 -4.179993,-1.389954 -2.330017,0.04999 -4.23999,1.009949 -5.359985,2.699951 -1.179993,1.78003 -1.320008,4.150025 -0.380005,6.5 2.190002,5.5 9.140014,9.369995 9.440002,9.530029 z"
       style="fill:#ffffff" /></g></svg>