<?xml version="1.0" encoding="UTF-8" standalone="no"?>
<svg
   xmlns:dc="http://purl.org/dc/elements/1.1/"
   xmlns:cc="http://creativecommons.org/ns#"
   xmlns:rdf="http://www.w3.org/1999/02/22-rdf-syntax-ns#"
   xmlns:svg="http://www.w3.org/2000/svg"
   xmlns="http://www.w3.org/2000/svg"
   xmlns:sodipodi="http://sodipodi.sourceforge.net/DTD/sodipodi-0.dtd"
   xmlns:inkscape="http://www.inkscape.org/namespaces/inkscape"
   version="1.1"
   x="0px"
   y="0px"
   viewBox="0 0 125 125"
   enable-background="new 0 0 100 100"
   xml:space="preserve"
   id="svg3924"
   sodipodi:docname="sharp.svg"
   width="125"
   height="125"
   inkscape:version="0.92.5 (2060ec1f9f, 2020-04-08)"><metadata
     id="metadata3930"><rdf:RDF><cc:Work
         rdf:about=""><dc:format>image/svg+xml</dc:format><dc:type
           rdf:resource="http://purl.org/dc/dcmitype/StillImage" /><dc:title></dc:title></cc:Work></rdf:RDF></metadata><defs
     id="defs3928" /><sodipodi:namedview
     pagecolor="#ffffff"
     bordercolor="#666666"
     borderopacity="1"
     objecttolerance="10"
     gridtolerance="10"
     guidetolerance="10"
     inkscape:pageopacity="0"
     inkscape:pageshadow="2"
     inkscape:window-width="1216"
     inkscape:window-height="791"
     id="namedview3926"
     showgrid="false"
     inkscape:zoom="1.888"
     inkscape:cx="-29.978814"
     inkscape:cy="62.5"
     inkscape:window-x="119"
     inkscape:window-y="44"
     inkscape:window-maximized="0"
     inkscape:current-layer="svg3924" /><g
     id="g3918"
     transform="translate(12.499937,12.501187)"
     style="fill:#ffffff"><path
       d="M 97.304,85.979 76.124,64.8 C 72.95,65.876 69.377,65.399 66.562,63.377 79.77,48.514 79.26,25.67 65.022,11.43 c -14.774,-14.775 -38.815,-14.775 -53.59,0 -14.775,14.776 -14.775,38.816 0,53.592 14.239,14.239 37.084,14.748 51.944,1.54 2.021,2.813 2.499,6.387 1.424,9.562 l 21.178,21.179 c 3.128,3.128 8.198,3.128 11.327,-10e-4 3.126,-3.126 3.126,-8.196 -0.001,-11.323 z M 38.228,67.175 C 22.265,67.172 9.28,54.188 9.28,38.227 9.281,22.266 22.265,9.28 38.226,9.28 54.188,9.28 67.172,22.265 67.173,38.227 67.172,54.188 54.188,67.173 38.228,67.175 Z"
       id="path3914"
       inkscape:connector-curvature="0"
       style="fill:#ffffff" /><path
       d="M 38.226,12.105 C 23.919,12.105 12.281,23.745 12.28,38.051 12.28,52.36 23.919,63.997 38.228,64 52.535,63.998 64.172,52.36 64.173,38.053 64.172,23.745 52.534,12.105 38.226,12.105 Z m 18.782,29.707 c -1.763,0 -3.19,-1.428 -3.19,-3.188 0,-8.811 -7.167,-15.981 -15.981,-15.981 -1.762,0 -3.189,-1.429 -3.189,-3.19 0,-1.763 1.428,-3.189 3.19,-3.191 12.328,0 22.358,10.031 22.358,22.362 0.002,1.761 -1.426,3.19 -3.188,3.188 z"
       id="path3916"
       inkscape:connector-curvature="0"
       style="fill:#ffffff" /></g></svg>