<?xml version="1.0" encoding="UTF-8" standalone="no"?>
<svg
   xmlns:dc="http://purl.org/dc/elements/1.1/"
   xmlns:cc="http://creativecommons.org/ns#"
   xmlns:rdf="http://www.w3.org/1999/02/22-rdf-syntax-ns#"
   xmlns:svg="http://www.w3.org/2000/svg"
   xmlns="http://www.w3.org/2000/svg"
   xmlns:sodipodi="http://sodipodi.sourceforge.net/DTD/sodipodi-0.dtd"
   xmlns:inkscape="http://www.inkscape.org/namespaces/inkscape"
   version="1.1"
   x="0px"
   y="0px"
   viewBox="0 0 110 110"
   enable-background="new 0 0 100 100"
   xml:space="preserve"
   id="svg18"
   sodipodi:docname="tough.svg"
   width="110"
   height="110"
   inkscape:version="0.92.5 (2060ec1f9f, 2020-04-08)"><metadata
     id="metadata24"><rdf:RDF><cc:Work
         rdf:about=""><dc:format>image/svg+xml</dc:format><dc:type
           rdf:resource="http://purl.org/dc/dcmitype/StillImage" /><dc:title></dc:title></cc:Work></rdf:RDF></metadata><defs
     id="defs22" /><sodipodi:namedview
     pagecolor="#ffffff"
     bordercolor="#666666"
     borderopacity="1"
     objecttolerance="10"
     gridtolerance="10"
     guidetolerance="10"
     inkscape:pageopacity="0"
     inkscape:pageshadow="2"
     inkscape:window-width="1217"
     inkscape:window-height="789"
     id="namedview20"
     showgrid="false"
     inkscape:zoom="1.888"
     inkscape:cx="50"
     inkscape:cy="60.911017"
     inkscape:window-x="119"
     inkscape:window-y="44"
     inkscape:window-maximized="0"
     inkscape:current-layer="svg18" /><g
     id="g12"
     transform="translate(4.8687402,5.5244282)"
     style="fill:#ffffff"><path
       d="m 59.314,46.133 c 1.194,-0.042 2.35,-0.521 3.467,-1.279 l 1.919,-2.721 3.123,-4.431 4.669,-6.621 3.89,-6.352 0.229,-0.324 c 1.059,-1.656 2.475,-4.822 -0.032,-6.052 -2.078,-0.878 -3.659,-1.354 -5.165,0.224 L 54.445,42.643 c 0.476,1.796 3.063,3.553 4.869,3.49 z"
       id="path2"
       inkscape:connector-curvature="0"
       style="fill:#ffffff" /><path
       d="m 65.402,48.298 c -0.067,0.213 -0.139,0.428 -0.176,0.62 -0.546,2.855 3.411,3.787 5.18,3.453 3.057,-0.578 5.688,-3.211 7.966,-6.007 1.636,-2.008 7.276,-9.48 5.131,-13.908 -1.201,-2.475 -4.104,-3.407 -5.583,-1.908 z"
       id="path4"
       inkscape:connector-curvature="0"
       style="fill:#ffffff" /><path
       d="M 51.62,2.406 C 45.252,1.25 42.267,8.941 39.439,13.546 l 9.622,4.364 C 52.363,13.267 60.051,5.261 51.62,2.406 Z"
       id="path6"
       inkscape:connector-curvature="0"
       style="fill:#ffffff" /><path
       d="m 52.918,19.532 c 0.828,0.415 1.42,0.731 1.973,1.023 l 1.579,0.716 2.168,0.982 -0.635,1.581 C 55.919,29 51.382,34.765 44.764,32.817 c -1.011,3.183 1.906,3.35 3.989,4.267 1.583,0.333 2.833,1.833 5.583,-1.5 l 1.986,-2.545 c 0.148,-0.222 0.3,-0.449 0.449,-0.673 -0.149,0.224 -0.301,0.451 -0.448,0.672 l 4.651,-6.596 c 0.006,-0.007 0.012,-0.015 0.018,-0.023 l 5.89,-8.353 c 0.774,-1.324 1.405,-2.188 1.871,-3.481 1.375,-2.291 1.25,-4.834 -1.834,-6.417 -2,-1 -4.75,-1.333 -6.552,0.801 l -6.588,9.343 z"
       id="path8"
       inkscape:connector-curvature="0"
       style="fill:#ffffff" /><path
       d="m 69.419,55.583 c -4.407,-0.35 -6.834,-0.903 -7.031,-6.115 -2.069,0.282 -6.743,0.775 -8.485,-2.808 0.5,2.635 2.515,17.629 -0.055,17.775 -3.203,-0.096 -2.822,-9.008 -2.863,-11.043 -0.19,-9.753 -3.773,-15.326 -13.967,-18.263 1.087,-1.641 1.288,-2.043 4.315,-5.905 5.467,2.3 10.123,-0.207 12.424,-4.794 L 51.62,23.461 46.682,21.223 39.304,17.876 35.075,15.957 c -0.494,-0.09 -0.996,-0.173 -1.511,-0.248 -2.183,-0.313 -9.145,10.419 -10.894,12.955 -2.784,4.038 -6.135,9.714 -6.369,12.644 -0.408,5.119 5.031,10.855 7.769,15.537 2.741,4.688 7.334,10.447 8.2,15.104 1.559,8.389 0.727,14.895 0.052,24.713 H 65.95 c -0.654,-6.512 -1.416,-14.537 0.118,-18.924 1.324,-3.787 3.102,-5.488 7.352,-7.821 2.833,-1.417 4.354,-5.507 5.318,-9.188 1.09,-4.144 1.098,-4.396 2.27,-11.687 -2.991,3.289 -6.245,6.965 -11.589,6.541 z"
       id="path10"
       inkscape:connector-curvature="0"
       style="fill:#ffffff" /></g></svg>