<?xml version="1.0" encoding="UTF-8" standalone="no"?>
<svg
   xmlns:dc="http://purl.org/dc/elements/1.1/"
   xmlns:cc="http://creativecommons.org/ns#"
   xmlns:rdf="http://www.w3.org/1999/02/22-rdf-syntax-ns#"
   xmlns:svg="http://www.w3.org/2000/svg"
   xmlns="http://www.w3.org/2000/svg"
   xmlns:sodipodi="http://sodipodi.sourceforge.net/DTD/sodipodi-0.dtd"
   xmlns:inkscape="http://www.inkscape.org/namespaces/inkscape"
   viewBox="0 0 80 80"
   x="0px"
   y="0px"
   version="1.1"
   id="svg44"
   sodipodi:docname="weird.svg"
   width="80"
   height="80"
   inkscape:version="0.92.5 (2060ec1f9f, 2020-04-08)">
  <metadata
     id="metadata50">
    <rdf:RDF>
      <cc:Work
         rdf:about="">
        <dc:format>image/svg+xml</dc:format>
        <dc:type
           rdf:resource="http://purl.org/dc/dcmitype/StillImage" />
        <dc:title></dc:title>
      </cc:Work>
    </rdf:RDF>
  </metadata>
  <defs
     id="defs48" />
  <sodipodi:namedview
     pagecolor="#ffffff"
     bordercolor="#666666"
     borderopacity="1"
     objecttolerance="10"
     gridtolerance="10"
     guidetolerance="10"
     inkscape:pageopacity="0"
     inkscape:pageshadow="2"
     inkscape:window-width="1137"
     inkscape:window-height="731"
     id="namedview46"
     showgrid="false"
     inkscape:zoom="2.95"
     inkscape:cx="32.677966"
     inkscape:cy="37.288136"
     inkscape:window-x="119"
     inkscape:window-y="44"
     inkscape:window-maximized="0"
     inkscape:current-layer="svg44" />
  <g
     id="g38"
     transform="translate(8.0019421,7.9972632)"
     style="fill:#ffffff">
    <circle
       cx="20"
       cy="39"
       r="1.031"
       id="circle2"
       style="fill:#ffffff" />
    <circle
       cx="22"
       cy="16"
       r="1"
       id="circle4"
       style="fill:#ffffff" />
    <circle
       cx="44"
       cy="11"
       r="1.031"
       id="circle6"
       style="fill:#ffffff" />
    <path
       d="m 30,29 a 5,5 0 1 0 5.6,-4.939 3,3 0 1 1 -1.208,0 A 4.99,4.99 0 0 0 30,29 Z"
       id="path8"
       inkscape:connector-curvature="0"
       style="fill:#ffffff" />
    <path
       d="m 35,22 a 6.865,6.865 0 0 1 0.776,0.046 12.891,12.891 0 0 1 7.561,3.577 8.992,8.992 0 0 0 -16.674,0 12.891,12.891 0 0 1 7.561,-3.577 A 6.865,6.865 0 0 1 35,22 Z"
       id="path10"
       inkscape:connector-curvature="0"
       style="fill:#ffffff" />
    <rect
       x="24"
       y="54"
       width="33"
       height="2"
       id="rect12"
       style="fill:#ffffff" />
    <path
       d="M 11,52 V 4.1 A 5.009,5.009 0 0 0 7,9 v 3.487 A 4.08,4.08 0 0 1 9,12 v 2 A 1.883,1.883 0 0 0 7,16 V 38.487 A 4.08,4.08 0 0 1 9,38 v 2 a 1.883,1.883 0 0 0 -2,2 v 1.487 A 4.08,4.08 0 0 1 9,43 v 2 a 1.883,1.883 0 0 0 -2,2 v 6.026 A 4.948,4.948 0 0 1 10,52 Z"
       id="path14"
       inkscape:connector-curvature="0"
       style="fill:#ffffff" />
    <path
       d="M 19,58.118 15.447,59.9 A 1,1 0 0 1 14,59 V 58 H 9 v -2 h 5 V 54 H 10 A 3,3 0 0 0 7.086,56.315 2.975,2.975 0 0 0 10,60 h 13 a 1,1 0 0 1 -0.447,-0.1 z"
       id="path16"
       inkscape:connector-curvature="0"
       style="fill:#ffffff" />
    <path
       d="M 19.447,56.105 22,57.382 V 54 h -6 v 3.382 l 2.553,-1.277 a 1,1 0 0 1 0.894,0 z"
       id="path18"
       inkscape:connector-curvature="0"
       style="fill:#ffffff" />
    <circle
       cx="35"
       cy="27"
       r="1"
       id="circle20"
       style="fill:#ffffff" />
    <path
       d="m 24,59 a 1,1 0 0 1 -1,1 H 57 V 58 H 24 Z"
       id="path22"
       inkscape:connector-curvature="0"
       style="fill:#ffffff" />
    <circle
       cx="34"
       cy="47"
       r="1"
       id="circle24"
       style="fill:#ffffff" />
    <path
       d="m 28.782,32.2 a 6.936,6.936 0 0 1 -0.425,-5.4 16.58,16.58 0 0 0 -2.214,2.329 8.242,8.242 0 0 0 2.639,3.071 z"
       id="path26"
       inkscape:connector-curvature="0"
       style="fill:#ffffff" />
    <circle
       cx="49"
       cy="40"
       r="1.031"
       id="circle28"
       style="fill:#ffffff" />
    <circle
       cx="52"
       cy="24"
       r="1"
       id="circle30"
       style="fill:#ffffff" />
    <path
       d="m 41.643,26.806 a 6.929,6.929 0 0 1 -0.414,5.372 8.388,8.388 0 0 0 2.626,-3.045 16.5,16.5 0 0 0 -2.212,-2.327 z"
       id="path32"
       inkscape:connector-curvature="0"
       style="fill:#ffffff" />
    <path
       d="M 13,4 V 52 H 57 V 4 Z m 27,6 a 3,3 0 0 0 3,-3 1,1 0 0 1 2,0 3,3 0 0 0 3,3 1,1 0 0 1 0,2 3,3 0 0 0 -3,3 1,1 0 0 1 -2,0 3,3 0 0 0 -3,-3 1,1 0 0 1 0,-2 z m 9,7 v 2 H 47 V 17 Z M 30,11 h 2 v 2 h -2 z m -5,5 a 3,3 0 1 1 -3,-3 3,3 0 0 1 3,3 z m -5,8 v 2 H 18 V 24 Z M 15,6 h 6 v 2 h -4 v 4 h -2 z m 6,44 h -6 v -6 h 2 v 4 h 4 z m 3,-3 h -2 v -2 h 2 z m 0,-7 a 3,3 0 0 0 -3,3 1,1 0 0 1 -2,0 3,3 0 0 0 -3,-3 1,1 0 0 1 0,-2 3,3 0 0 0 3,-3 1,1 0 0 1 2,0 3,3 0 0 0 3,3 1,1 0 0 1 0,2 z m 10,10 a 3,3 0 1 1 3,-3 3,3 0 0 1 -3,3 z m 8,0 h -2 v -2 h 2 z m -1.469,-11.507 1.3,1.952 -1.664,1.11 -1.467,-2.208 a 10.786,10.786 0 0 1 -7.392,0 l -1.472,2.208 -1.664,-1.11 1.3,-1.952 a 11.061,11.061 0 0 1 -4.539,-5.082 l -1.614,0.538 -0.632,-1.9 1.617,-0.539 a 10.632,10.632 0 0 1 0,-5.024 l -1.617,-0.539 0.632,-1.9 1.614,0.538 a 11.061,11.061 0 0 1 4.539,-5.082 l -1.3,-1.952 1.664,-1.11 1.464,2.212 a 10.786,10.786 0 0 1 7.392,0 l 1.472,-2.208 1.664,1.11 -1.3,1.952 a 11.078,11.078 0 0 1 4.12,4.222 l 2.033,-0.678 0.632,1.9 -1.87,0.623 a 10.57,10.57 0 0 1 0.429,5 l 1.441,0.48 -0.632,1.9 -1.274,-0.425 a 11.04,11.04 0 0 1 -4.876,5.964 z M 48,44 a 3,3 0 0 0 -3,-3 1,1 0 0 1 0,-2 3,3 0 0 0 3,-3 1,1 0 0 1 2,0 3,3 0 0 0 3,3 1,1 0 0 1 0,2 3,3 0 0 0 -3,3 1,1 0 0 1 -2,0 z m 4,-9 v -2 h 2 v 2 z m 3,15 h -6 v -2 h 4 v -4 h 2 z M 52,27 a 3,3 0 1 1 3,-3 3,3 0 0 1 -3,3 z M 55,12 H 53 V 8 H 49 V 6 h 6 z"
       id="path34"
       inkscape:connector-curvature="0"
       style="fill:#ffffff" />
    <path
       d="m 27.261,33.57 a 8.975,8.975 0 0 0 15.478,0 A 12.151,12.151 0 0 1 35,36 12.151,12.151 0 0 1 27.261,33.57 Z"
       id="path36"
       inkscape:connector-curvature="0"
       style="fill:#ffffff" />
  </g>
</svg>
